<svg aria-hidden="true" style="position:absolute;width:0;height:0;overflow:hidden" xmlns="http://www.w3.org/2000/svg">
  <defs>
    <symbol id="icon-logo" viewBox="0 0 35 32">
<path fill="#ecd979" style="fill: var(--color1, #ecd979)" d="M35.152 31.565h-1.096v-1.112h1.098v1.112zM34.055 31.565h-1.098v-1.112h1.098v1.112zM29.664 31.565h-1.098v-1.112h1.098v1.112zM28.566 31.565h-1.098v-1.112h1.098v1.112zM27.468 31.565h-1.098v-1.112h1.098v1.112zM20.88 31.565h-1.098v-1.112h1.098v1.112zM14.294 31.565h-1.098v-1.112h1.098v1.112zM7.706 31.565h-1.098v-1.112h1.098v1.112zM6.609 31.565h-1.098v-1.112h1.097v1.112z"></path>
<path fill="#ecd979" style="fill: var(--color1, #ecd979)" d="M5.511 31.565h-1.098v-1.112h1.099v1.112zM1.12 31.565h-1.099v-1.112h1.099v1.112zM35.152 30.452h-1.096v-1.113h1.098v1.113zM30.762 30.452h-1.098v-1.113h1.098v1.113z"></path>
<path fill="#ecd979" style="fill: var(--color1, #ecd979)" d="M29.664 30.452h-1.098v-1.113h1.098v1.113zM28.566 30.452h-1.098v-1.113h1.098v1.113zM20.88 30.452h-1.098v-1.113h1.098v1.113z"></path>
<path fill="#ecd979" style="fill: var(--color1, #ecd979)" d="M19.783 30.452h-1.098v-1.113h1.098v1.113zM15.392 30.452h-1.098v-1.113h1.098v1.113z"></path>
<path fill="#ecd979" style="fill: var(--color1, #ecd979)" d="M14.294 30.452h-1.098v-1.113h1.098v1.113zM6.609 30.452h-1.098v-1.113h1.097v1.113z"></path>
<path fill="#ecd979" style="fill: var(--color1, #ecd979)" d="M5.511 30.452h-1.098v-1.113h1.099v1.113zM4.413 30.452h-1.098v-1.113h1.098v1.113zM31.859 29.339h-1.098v-1.113h1.098v1.112zM30.762 29.339h-1.098v-1.113h1.098v1.112z"></path>
<path fill="#ecd979" style="fill: var(--color1, #ecd979)" d="M29.664 29.339h-1.098v-1.113h1.098v1.112zM20.88 29.339h-1.098v-1.113h1.098v1.112z"></path>
<path fill="#ecd979" style="fill: var(--color1, #ecd979)" d="M19.783 29.339h-1.098v-1.113h1.098v1.112z"></path>
<path fill="#ecd979" style="fill: var(--color1, #ecd979)" d="M18.685 29.339h-1.098v-1.113h1.098v1.112zM16.49 29.339h-1.098v-1.113h1.098v1.112zM15.392 29.339h-1.098v-1.113h1.098v1.112zM14.294 29.339h-1.098v-1.113h1.098v1.112zM5.511 29.339h-1.098v-1.113h1.099v1.112zM4.413 29.339h-1.098v-1.113h1.098v1.112zM3.315 29.339h-1.098v-1.113h1.098v1.112zM32.957 28.226h-1.098v-1.114h1.098v1.114zM31.859 28.226h-1.098v-1.114h1.098v1.114zM30.762 28.226h-1.098v-1.114h1.098v1.114zM25.272 28.226h-1.098v-1.114h1.098v1.114zM24.174 28.226h-1.098v-1.114h1.098v1.114zM23.077 28.226h-1.098v-1.114h1.098v1.114zM19.783 28.226h-1.098v-1.114h1.098v1.114z"></path>
<path fill="#ecd979" style="fill: var(--color1, #ecd979)" d="M18.685 28.226h-1.098v-1.114h1.098v1.114zM16.49 28.226h-1.098v-1.114h1.098v1.114zM15.392 28.226h-1.098v-1.114h1.098v1.114zM12.098 28.226h-1.098v-1.114h1.098v1.114zM11 28.226h-1.098v-1.114h1.098v1.114zM9.902 28.226h-1.098v-1.114h1.098v1.114zM4.413 28.226h-1.098v-1.114h1.098v1.114zM3.315 28.226h-1.098v-1.114h1.098v1.114z"></path>
<path fill="#ecd979" style="fill: var(--color1, #ecd979)" d="M2.218 28.226h-1.098v-1.114h1.098v1.114zM34.055 27.113h-1.098v-1.113h1.098v1.113zM32.957 27.113h-1.098v-1.113h1.098v1.113zM31.859 27.113h-1.098v-1.113h1.098v1.113zM24.174 27.113h-1.098v-1.113h1.098v1.113zM23.077 27.113h-1.098v-1.113h1.098v1.113zM21.978 27.113h-1.098v-1.113h1.098v1.113zM18.685 27.113h-1.098v-1.113h1.098v1.113zM16.49 27.113h-1.098v-1.113h1.098v1.113zM13.196 27.113h-1.098v-1.113h1.098v1.113zM12.098 27.113h-1.098v-1.113h1.098v1.113zM11 27.113h-1.098v-1.113h1.098v1.113z"></path>
<path fill="#ecd979" style="fill: var(--color1, #ecd979)" d="M3.315 27.113h-1.098v-1.113h1.098v1.113z"></path>
<path fill="#ecd979" style="fill: var(--color1, #ecd979)" d="M2.218 27.113h-1.098v-1.113h1.098v1.113z"></path>
<path fill="#ecd979" style="fill: var(--color1, #ecd979)" d="M1.12 27.113h-1.099v-1.113h1.099v1.113zM34.055 26h-1.098v-1.113h1.098v1.113zM32.957 26h-1.098v-1.113h1.098v1.113zM23.077 26h-1.098v-1.113h1.098v1.113zM21.978 26h-1.098v-1.113h1.098v1.113zM20.88 26h-1.098v-1.113h1.098v1.113zM14.294 26h-1.098v-1.113h1.098v1.113zM13.196 26h-1.098v-1.113h1.098v1.113zM12.098 26h-1.098v-1.113h1.098v1.113zM2.218 26h-1.098v-1.113h1.098v1.113z"></path>
<path fill="#ecd979" style="fill: var(--color1, #ecd979)" d="M1.12 26h-1.099v-1.113h1.099v1.113zM34.055 24.887h-1.098v-1.114h1.098v1.114zM28.566 24.887h-1.098v-1.114h1.098v1.114zM18.685 24.887h-1.098v-1.114h1.098v1.114zM16.49 24.887h-1.098v-1.114h1.098v1.114zM6.609 24.887h-1.098v-1.114h1.097v1.114zM1.12 24.887h-1.099v-1.114h1.099v1.114zM28.566 23.774h-1.098v-1.112h1.098v1.112zM27.468 23.774h-1.098v-1.112h1.098v1.112zM19.783 23.774h-1.098v-1.112h1.098v1.112z"></path>
<path fill="#ecd979" style="fill: var(--color1, #ecd979)" d="M18.685 23.774h-1.098v-1.112h1.098v1.112zM16.49 23.774h-1.098v-1.112h1.098v1.112zM15.392 23.774h-1.098v-1.112h1.098v1.112zM7.706 23.774h-1.098v-1.112h1.098v1.112zM6.609 23.774h-1.098v-1.112h1.097v1.112zM28.566 22.661h-1.098v-1.113h1.098v1.113zM27.468 22.661h-1.098v-1.113h1.098v1.113zM26.37 22.661h-1.098v-1.113h1.098v1.113zM20.88 22.661h-1.098v-1.113h1.098v1.113z"></path>
<path fill="#ecd979" style="fill: var(--color1, #ecd979)" d="M19.783 22.661h-1.098v-1.113h1.098v1.113zM15.392 22.661h-1.098v-1.113h1.098v1.113z"></path>
<path fill="#ecd979" style="fill: var(--color1, #ecd979)" d="M14.294 22.661h-1.098v-1.113h1.098v1.113zM8.805 22.661h-1.098v-1.113h1.098v1.113zM7.706 22.661h-1.098v-1.113h1.098v1.113zM6.609 22.661h-1.098v-1.113h1.097v1.113zM27.468 21.548h-1.098v-1.113h1.098v1.112zM26.37 21.548h-1.098v-1.113h1.098v1.112zM21.978 21.548h-1.098v-1.113h1.098v1.112zM20.88 21.548h-1.098v-1.113h1.098v1.112zM14.294 21.548h-1.098v-1.113h1.098v1.112zM13.196 21.548h-1.098v-1.113h1.098v1.112zM8.805 21.548h-1.098v-1.113h1.098v1.112zM7.706 21.548h-1.098v-1.113h1.098v1.112zM31.859 20.435h-1.098v-1.114h1.098v1.114zM30.762 20.435h-1.098v-1.114h1.098v1.114z"></path>
<path fill="#ecd979" style="fill: var(--color1, #ecd979)" d="M29.664 20.435h-1.098v-1.114h1.098v1.114zM26.37 20.435h-1.098v-1.114h1.098v1.114zM23.077 20.435h-1.098v-1.114h1.098v1.114zM21.978 20.435h-1.098v-1.114h1.098v1.114zM13.196 20.435h-1.098v-1.114h1.098v1.114zM12.098 20.435h-1.098v-1.114h1.098v1.114zM8.805 20.435h-1.098v-1.114h1.098v1.114zM5.511 20.435h-1.098v-1.114h1.099v1.114zM4.413 20.435h-1.098v-1.114h1.098v1.114zM3.315 20.435h-1.098v-1.114h1.098v1.114zM35.152 19.322h-1.096v-1.113h1.098v1.113zM30.762 19.322h-1.098v-1.113h1.098v1.113z"></path>
<path fill="#ecd979" style="fill: var(--color1, #ecd979)" d="M29.664 19.322h-1.098v-1.113h1.098v1.113zM28.566 19.322h-1.098v-1.113h1.098v1.113zM24.174 19.322h-1.098v-1.113h1.098v1.113zM23.077 19.322h-1.098v-1.113h1.098v1.113zM12.098 19.322h-1.098v-1.113h1.098v1.113zM11 19.322h-1.098v-1.113h1.098v1.113zM6.609 19.322h-1.098v-1.113h1.097v1.113z"></path>
<path fill="#ecd979" style="fill: var(--color1, #ecd979)" d="M5.511 19.322h-1.098v-1.113h1.099v1.113zM4.413 19.322h-1.098v-1.113h1.098v1.113zM35.152 18.208h-1.096v-1.112h1.098v1.112zM34.055 18.208h-1.098v-1.112h1.098v1.112zM29.664 18.208h-1.098v-1.112h1.098v1.112zM28.566 18.208h-1.098v-1.112h1.098v1.112zM27.468 18.208h-1.098v-1.112h1.098v1.112zM25.272 18.208h-1.098v-1.112h1.098v1.112zM24.174 18.208h-1.098v-1.112h1.098v1.112zM17.587 18.208h-1.098v-1.112h1.098v1.112zM11 18.208h-1.098v-1.112h1.098v1.112zM9.902 18.208h-1.098v-1.112h1.098v1.112zM7.706 18.208h-1.098v-1.112h1.098v1.112zM6.609 18.208h-1.098v-1.112h1.097v1.112z"></path>
<path fill="#ecd979" style="fill: var(--color1, #ecd979)" d="M5.511 18.208h-1.098v-1.112h1.099v1.112zM1.098 17.096h-1.098v-1.114h1.098v1.114zM2.218 17.096h-1.098v-1.114h1.098v1.114zM1.098 18.208h-1.098v-1.112h1.098v1.112zM1.098 15.982h-1.098v-1.113h1.098v1.113zM35.152 17.096h-1.096v-1.114h1.098v1.114zM34.055 17.096h-1.098v-1.114h1.098v1.114zM32.957 17.096h-1.098v-1.114h1.098v1.114zM18.685 17.096h-1.098v-1.114h1.098v1.114zM17.587 17.096h-1.098v-1.114h1.098v1.114zM16.49 17.096h-1.098v-1.114h1.098v1.114zM35.152 15.982h-1.096v-1.113h1.098v1.113zM34.055 15.982h-1.098v-1.113h1.098v1.113zM29.664 15.982h-1.098v-1.113h1.098v1.113zM28.566 15.982h-1.098v-1.113h1.098v1.113zM27.468 15.982h-1.098v-1.113h1.098v1.113zM25.272 15.982h-1.098v-1.113h1.098v1.113zM24.174 15.982h-1.098v-1.113h1.098v1.113zM17.587 15.982h-1.098v-1.113h1.098v1.113zM11 15.982h-1.098v-1.113h1.098v1.113zM9.902 15.982h-1.098v-1.113h1.098v1.113zM7.706 15.982h-1.098v-1.113h1.098v1.113zM6.609 15.982h-1.098v-1.113h1.097v1.113z"></path>
<path fill="#ecd979" style="fill: var(--color1, #ecd979)" d="M5.511 15.982h-1.098v-1.113h1.099v1.113zM35.152 14.87h-1.096v-1.113h1.098v1.112zM30.762 14.87h-1.098v-1.113h1.098v1.112z"></path>
<path fill="#ecd979" style="fill: var(--color1, #ecd979)" d="M29.664 14.87h-1.098v-1.113h1.098v1.112zM28.566 14.87h-1.098v-1.113h1.098v1.112zM24.174 14.87h-1.098v-1.113h1.098v1.112zM23.077 14.87h-1.098v-1.113h1.098v1.112zM12.098 14.87h-1.098v-1.113h1.098v1.112zM11 14.87h-1.098v-1.113h1.098v1.112zM6.609 14.87h-1.098v-1.113h1.097v1.112z"></path>
<path fill="#ecd979" style="fill: var(--color1, #ecd979)" d="M5.511 14.87h-1.098v-1.113h1.099v1.112zM4.413 14.87h-1.098v-1.113h1.098v1.112zM31.859 13.757h-1.098v-1.114h1.098v1.114zM30.762 13.757h-1.098v-1.114h1.098v1.114z"></path>
<path fill="#ecd979" style="fill: var(--color1, #ecd979)" d="M29.664 13.757h-1.098v-1.114h1.098v1.114zM26.37 13.757h-1.098v-1.114h1.098v1.114zM23.077 13.757h-1.098v-1.114h1.098v1.114zM21.978 13.757h-1.098v-1.114h1.098v1.114zM13.196 13.757h-1.098v-1.114h1.098v1.114zM12.098 13.757h-1.098v-1.114h1.098v1.114zM8.805 13.757h-1.098v-1.114h1.098v1.114zM5.511 13.757h-1.098v-1.114h1.099v1.114zM4.413 13.757h-1.098v-1.114h1.098v1.114zM3.315 13.757h-1.098v-1.114h1.098v1.114zM27.468 12.643h-1.098v-1.113h1.098v1.113zM26.37 12.643h-1.098v-1.113h1.098v1.113zM21.978 12.643h-1.098v-1.113h1.098v1.113z"></path>
<path fill="#ecd979" style="fill: var(--color1, #ecd979)" d="M20.88 12.643h-1.098v-1.113h1.098v1.113zM14.294 12.643h-1.098v-1.113h1.098v1.113zM13.196 12.643h-1.098v-1.113h1.098v1.113zM8.805 12.643h-1.098v-1.113h1.098v1.113zM7.706 12.643h-1.098v-1.113h1.098v1.113zM28.566 11.53h-1.098v-1.113h1.098v1.113zM27.468 11.53h-1.098v-1.113h1.098v1.113zM26.37 11.53h-1.098v-1.113h1.098v1.113zM20.88 11.53h-1.098v-1.113h1.098v1.113z"></path>
<path fill="#ecd979" style="fill: var(--color1, #ecd979)" d="M19.783 11.53h-1.098v-1.113h1.098v1.113zM15.392 11.53h-1.098v-1.113h1.098v1.113z"></path>
<path fill="#ecd979" style="fill: var(--color1, #ecd979)" d="M14.294 11.53h-1.098v-1.113h1.098v1.113zM8.805 11.53h-1.098v-1.113h1.098v1.113zM7.706 11.53h-1.098v-1.113h1.098v1.113zM6.609 11.53h-1.098v-1.113h1.097v1.113zM28.566 10.418h-1.098v-1.114h1.098v1.114zM27.468 10.418h-1.098v-1.114h1.098v1.114zM19.783 10.418h-1.098v-1.114h1.098v1.114z"></path>
<path fill="#ecd979" style="fill: var(--color1, #ecd979)" d="M18.685 10.418h-1.098v-1.114h1.098v1.114zM16.49 10.418h-1.098v-1.114h1.098v1.114zM15.392 10.418h-1.098v-1.114h1.098v1.114zM7.706 10.418h-1.098v-1.114h1.098v1.114zM6.609 10.418h-1.098v-1.114h1.097v1.114zM28.566 9.304h-1.098v-1.112h1.098v1.112zM18.685 9.304h-1.098v-1.112h1.098v1.112zM16.49 9.304h-1.098v-1.112h1.098v1.112zM6.609 9.304h-1.098v-1.112h1.097v1.112zM34.055 8.192h-1.098v-1.114h1.098v1.113zM1.12 8.192h-1.099v-1.114h1.099v1.113z"></path>
<path fill="#ecd979" style="fill: var(--color1, #ecd979)" d="M34.055 7.078h-1.098v-1.114h1.098v1.114zM32.957 7.078h-1.098v-1.114h1.098v1.114zM23.077 7.078h-1.098v-1.114h1.098v1.114zM21.978 7.078h-1.098v-1.114h1.098v1.114zM20.88 7.078h-1.098v-1.114h1.098v1.114zM14.294 7.078h-1.098v-1.114h1.098v1.114zM13.196 7.078h-1.098v-1.114h1.098v1.114zM12.098 7.078h-1.098v-1.114h1.098v1.114zM2.218 7.078h-1.098v-1.114h1.098v1.114z"></path>
<path fill="#ecd979" style="fill: var(--color1, #ecd979)" d="M1.12 7.078h-1.099v-1.114h1.099v1.114zM34.055 5.966h-1.098v-1.114h1.098v1.114zM32.957 5.966h-1.098v-1.114h1.098v1.114zM31.859 5.966h-1.098v-1.114h1.098v1.114zM24.174 5.966h-1.098v-1.114h1.098v1.114zM23.077 5.966h-1.098v-1.114h1.098v1.114zM21.978 5.966h-1.098v-1.114h1.098v1.114zM18.685 5.966h-1.098v-1.114h1.098v1.114zM16.49 5.966h-1.098v-1.114h1.098v1.114zM13.196 5.966h-1.098v-1.114h1.098v1.114zM12.098 5.966h-1.098v-1.114h1.098v1.114zM11 5.966h-1.098v-1.114h1.098v1.114zM3.315 5.966h-1.098v-1.114h1.098v1.114z"></path>
<path fill="#ecd979" style="fill: var(--color1, #ecd979)" d="M2.218 5.966h-1.098v-1.114h1.098v1.114z"></path>
<path fill="#ecd979" style="fill: var(--color1, #ecd979)" d="M1.12 5.966h-1.099v-1.114h1.099v1.114zM32.957 4.852h-1.098v-1.113h1.098v1.113zM31.859 4.852h-1.098v-1.113h1.098v1.113zM30.762 4.852h-1.098v-1.113h1.098v1.113zM25.272 4.852h-1.098v-1.113h1.098v1.113zM24.174 4.852h-1.098v-1.113h1.098v1.113zM23.077 4.852h-1.098v-1.113h1.098v1.113zM19.783 4.852h-1.098v-1.113h1.098v1.113z"></path>
<path fill="#ecd979" style="fill: var(--color1, #ecd979)" d="M18.685 4.852h-1.098v-1.113h1.098v1.113zM16.49 4.852h-1.098v-1.113h1.098v1.113zM15.392 4.852h-1.098v-1.113h1.098v1.113zM12.098 4.852h-1.098v-1.113h1.098v1.113zM11 4.852h-1.098v-1.113h1.098v1.113zM9.902 4.852h-1.098v-1.113h1.098v1.113zM4.413 4.852h-1.098v-1.113h1.098v1.113zM3.315 4.852h-1.098v-1.113h1.098v1.113z"></path>
<path fill="#ecd979" style="fill: var(--color1, #ecd979)" d="M2.218 4.852h-1.098v-1.113h1.098v1.113zM31.859 3.739h-1.098v-1.113h1.098v1.112zM30.762 3.739h-1.098v-1.113h1.098v1.112z"></path>
<path fill="#ecd979" style="fill: var(--color1, #ecd979)" d="M29.664 3.739h-1.098v-1.113h1.098v1.112zM20.88 3.739h-1.098v-1.113h1.098v1.112z"></path>
<path fill="#ecd979" style="fill: var(--color1, #ecd979)" d="M19.783 3.739h-1.098v-1.113h1.098v1.112z"></path>
<path fill="#ecd979" style="fill: var(--color1, #ecd979)" d="M18.685 3.739h-1.098v-1.113h1.098v1.112zM16.49 3.739h-1.098v-1.113h1.098v1.112zM15.392 3.739h-1.098v-1.113h1.098v1.112zM14.294 3.739h-1.098v-1.113h1.098v1.112zM5.511 3.739h-1.098v-1.113h1.099v1.112zM4.413 3.739h-1.098v-1.113h1.098v1.112zM3.315 3.739h-1.098v-1.113h1.098v1.112zM35.152 2.626h-1.096v-1.114h1.098v1.114zM30.762 2.626h-1.098v-1.114h1.098v1.114z"></path>
<path fill="#ecd979" style="fill: var(--color1, #ecd979)" d="M29.664 2.626h-1.098v-1.114h1.098v1.114zM28.566 2.626h-1.098v-1.114h1.098v1.114zM20.88 2.626h-1.098v-1.114h1.098v1.114z"></path>
<path fill="#ecd979" style="fill: var(--color1, #ecd979)" d="M19.783 2.626h-1.098v-1.114h1.098v1.114zM15.392 2.626h-1.098v-1.114h1.098v1.114z"></path>
<path fill="#ecd979" style="fill: var(--color1, #ecd979)" d="M14.294 2.626h-1.098v-1.114h1.098v1.114zM6.609 2.626h-1.098v-1.114h1.097v1.114z"></path>
<path fill="#ecd979" style="fill: var(--color1, #ecd979)" d="M5.511 2.626h-1.098v-1.114h1.099v1.114zM4.413 2.626h-1.098v-1.114h1.098v1.114zM35.152 1.513h-1.096v-1.113h1.098v1.113zM34.055 1.513h-1.098v-1.113h1.098v1.113zM29.664 1.513h-1.098v-1.113h1.098v1.113zM28.566 1.513h-1.098v-1.113h1.098v1.113zM27.468 1.513h-1.098v-1.113h1.098v1.113zM20.88 1.513h-1.098v-1.113h1.098v1.113zM14.294 1.513h-1.098v-1.113h1.098v1.113zM7.706 1.513h-1.098v-1.113h1.098v1.113z"></path>
<path fill="#ecd979" style="fill: var(--color1, #ecd979)" d="M6.609 1.513h-1.098v-1.113h1.097v1.113z"></path>
<path fill="#ecd979" style="fill: var(--color1, #ecd979)" d="M5.511 1.513h-1.098v-1.113h1.099v1.113zM1.12 1.513h-1.099v-1.113h1.099v1.113z"></path>
</symbol>
    <symbol id="icon-svg_fb" viewBox="0 0 32 32">
      <path fill="#fcf9f9" style="fill:var(--color2, #fcf9f9)" opacity=".8" d="M19.52 4.64h.96v3.6h-1.2c-.48 0-.96 0-1.2.24s-.24.48-.24 1.04v1.28h2.64v3.04h-2.64v13.2h-4.08V13.76H11.6v-3.04h2.16V9.68c0-1.76.24-3.04.72-3.6.72-1.04 2.16-1.52 4.32-1.52.24.08.48.08.72.08z"/>
    </symbol>
    <symbol id="icon-svg_instagram" viewBox="0 0 32 32">
      <path fill="#fcf9f9" style="fill:var(--color2, #fcf9f9)" opacity=".8" d="M28.717 10.756a9.264 9.264 0 0 0-.596-3.145 6.547 6.547 0 0 0-3.743-3.737 9.42 9.42 0 0 0-3.108-.596c-1.368-.061-1.801-.078-5.273-.078s-3.917 0-5.274.078a9.418 9.418 0 0 0-3.106.596 6.541 6.541 0 0 0-3.743 3.737 9.288 9.288 0 0 0-.596 3.101c-.061 1.367-.08 1.8-.08 5.265s0 3.909.08 5.265a9.335 9.335 0 0 0 .596 3.104 6.548 6.548 0 0 0 3.744 3.735 9.37 9.37 0 0 0 3.106.639c1.369.061 1.803.08 5.274.08s3.916 0 5.274-.08a9.357 9.357 0 0 0 3.108-.595 6.555 6.555 0 0 0 3.743-3.737 9.35 9.35 0 0 0 .596-3.104c.061-1.365.08-1.798.08-5.265-.003-3.466-.003-3.906-.082-5.264zM15.99 22.531c-3.631 0-6.572-2.936-6.572-6.561s2.941-6.561 6.572-6.561c3.628 0 6.572 2.936 6.572 6.561s-2.944 6.561-6.572 6.561zm6.833-11.835a1.53 1.53 0 1 1 0-3.06 1.53 1.53 0 1 1 0 3.06z"/>
      <path fill="#fcf9f9" style="fill:var(--color2, #fcf9f9)" opacity=".8" d="M15.992 19.976a4.004 4.004 0 1 0 0-8.009 4.004 4.004 0 0 0 0 8.009z"/>
    </symbol>
    <symbol id="icon-svg_youtube" viewBox="0 0 32 32">
      <path fill="#fcf9f9" style="fill:var(--color2, #fcf9f9)" opacity=".8" d="M24.24 6c-1.36-.08-4.16-.16-8.4-.16h-.56c-4.08 0-6.8.08-8.16.24-1.84.16-3.12.64-3.84 1.28-.64.56-1.12 1.6-1.28 2.96-.08.88-.16 2.72-.16 5.52v.4c0 2.64.08 4.48.24 5.36.24 1.28.64 2.24 1.44 2.8.8.64 2.16 1.04 4.08 1.2 1.36.08 4.16.16 8.4.16h.56c4.08 0 6.8-.08 8.16-.24 1.84-.16 3.12-.64 3.84-1.28.64-.56 1.12-1.6 1.28-2.96.08-.88.16-2.72.16-5.52v-.4c0-2.64-.08-4.48-.24-5.36-.24-1.28-.64-2.24-1.44-2.8-.8-.64-2.16-1.04-4.08-1.2zm-3.12 9.84-8.8 5.28V10.56l8.8 5.28z"/>
    </symbol>
        <symbol id="icon-Nav" viewBox="0 0 32 32">
      <path fill="none" stroke="#ecd979" style="stroke:var(--color1, #ecd979)" stroke-linecap="round" stroke-width="2.182" d="M5.961 8.628H30.91M5.961 21.851H30.91M13.613 15.24h17.296"/>
    </symbol>
    <symbol id="icon-Star-10" viewBox="0 0 32 32">
      <path fill="#ecd979" style="fill:var(--color1, #ecd979)" d="M15.434.333a.653.653 0 0 1 1.133 0l1.84 3.203c.19.33.621.429.935.214l3.081-2.107a.653.653 0 0 1 1.02.496l.239 3.642a.653.653 0 0 0 .754.602l3.69-.584c.504-.08.9.423.706.894l-1.386 3.36a.653.653 0 0 0 .421.876l3.555 1.036a.653.653 0 0 1 .252 1.115l-2.731 2.433a.654.654 0 0 0 0 .975l2.731 2.433a.653.653 0 0 1-.252 1.115l-3.555 1.036a.653.653 0 0 0-.421.876l1.386 3.36a.653.653 0 0 1-.706.894l-3.69-.584a.653.653 0 0 0-.754.602l-.239 3.642a.653.653 0 0 1-1.02.496l-3.081-2.107a.653.653 0 0 0-.935.214l-1.84 3.203a.653.653 0 0 1-1.133 0l-1.84-3.203a.653.653 0 0 0-.935-.214l-3.081 2.107a.652.652 0 0 1-1.02-.496l-.239-3.642a.653.653 0 0 0-.754-.602l-3.69.584a.653.653 0 0 1-.706-.894l1.386-3.36a.653.653 0 0 0-.421-.876L.579 20.036a.653.653 0 0 1-.252-1.115l2.731-2.433a.654.654 0 0 0 0-.975L.327 13.08a.653.653 0 0 1 .252-1.115l3.555-1.036a.653.653 0 0 0 .421-.876l-1.386-3.36a.653.653 0 0 1 .706-.894l3.69.584c.38.06.729-.219.754-.602l.239-3.642a.653.653 0 0 1 1.02-.496l3.081 2.107a.653.653 0 0 0 .935-.214l1.84-3.203z"/>
    </symbol>
  </defs>
</svg>


