<svg aria-hidden="true" style="position:absolute;width:0;height:0;overflow:hidden" xmlns="http://www.w3.org/2000/svg">
  <defs>
    <symbol id="icon-logo" viewBox="0 0 35 32">
<path fill="#ecd979" style="fill: var(--color1, #ecd979)" d="M35.152 31.565h-1.096v-1.112h1.098v1.112zM34.055 31.565h-1.098v-1.112h1.098v1.112zM29.664 31.565h-1.098v-1.112h1.098v1.112zM28.566 31.565h-1.098v-1.112h1.098v1.112zM27.468 31.565h-1.098v-1.112h1.098v1.112zM20.88 31.565h-1.098v-1.112h1.098v1.112zM14.294 31.565h-1.098v-1.112h1.098v1.112zM7.706 31.565h-1.098v-1.112h1.098v1.112zM6.609 31.565h-1.098v-1.112h1.097v1.112z"></path>
<path fill="#ecd979" style="fill: var(--color1, #ecd979)" d="M5.511 31.565h-1.098v-1.112h1.099v1.112zM1.12 31.565h-1.099v-1.112h1.099v1.112zM35.152 30.452h-1.096v-1.113h1.098v1.113zM30.762 30.452h-1.098v-1.113h1.098v1.113z"></path>
<path fill="#ecd979" style="fill: var(--color1, #ecd979)" d="M29.664 30.452h-1.098v-1.113h1.098v1.113zM28.566 30.452h-1.098v-1.113h1.098v1.113zM20.88 30.452h-1.098v-1.113h1.098v1.113z"></path>
<path fill="#ecd979" style="fill: var(--color1, #ecd979)" d="M19.783 30.452h-1.098v-1.113h1.098v1.113zM15.392 30.452h-1.098v-1.113h1.098v1.113z"></path>
<path fill="#ecd979" style="fill: var(--color1, #ecd979)" d="M14.294 30.452h-1.098v-1.113h1.098v1.113zM6.609 30.452h-1.098v-1.113h1.097v1.113z"></path>
<path fill="#ecd979" style="fill: var(--color1, #ecd979)" d="M5.511 30.452h-1.098v-1.113h1.099v1.113zM4.413 30.452h-1.098v-1.113h1.098v1.113zM31.859 29.339h-1.098v-1.113h1.098v1.112zM30.762 29.339h-1.098v-1.113h1.098v1.112z"></path>
<path fill="#ecd979" style="fill: var(--color1, #ecd979)" d="M29.664 29.339h-1.098v-1.113h1.098v1.112zM20.88 29.339h-1.098v-1.113h1.098v1.112z"></path>
<path fill="#ecd979" style="fill: var(--color1, #ecd979)" d="M19.783 29.339h-1.098v-1.113h1.098v1.112z"></path>
<path fill="#ecd979" style="fill: var(--color1, #ecd979)" d="M18.685 29.339h-1.098v-1.113h1.098v1.112zM16.49 29.339h-1.098v-1.113h1.098v1.112zM15.392 29.339h-1.098v-1.113h1.098v1.112zM14.294 29.339h-1.098v-1.113h1.098v1.112zM5.511 29.339h-1.098v-1.113h1.099v1.112zM4.413 29.339h-1.098v-1.113h1.098v1.112zM3.315 29.339h-1.098v-1.113h1.098v1.112zM32.957 28.226h-1.098v-1.114h1.098v1.114zM31.859 28.226h-1.098v-1.114h1.098v1.114zM30.762 28.226h-1.098v-1.114h1.098v1.114zM25.272 28.226h-1.098v-1.114h1.098v1.114zM24.174 28.226h-1.098v-1.114h1.098v1.114zM23.077 28.226h-1.098v-1.114h1.098v1.114zM19.783 28.226h-1.098v-1.114h1.098v1.114z"></path>
<path fill="#ecd979" style="fill: var(--color1, #ecd979)" d="M18.685 28.226h-1.098v-1.114h1.098v1.114zM16.49 28.226h-1.098v-1.114h1.098v1.114zM15.392 28.226h-1.098v-1.114h1.098v1.114zM12.098 28.226h-1.098v-1.114h1.098v1.114zM11 28.226h-1.098v-1.114h1.098v1.114zM9.902 28.226h-1.098v-1.114h1.098v1.114zM4.413 28.226h-1.098v-1.114h1.098v1.114zM3.315 28.226h-1.098v-1.114h1.098v1.114z"></path>
<path fill="#ecd979" style="fill: var(--color1, #ecd979)" d="M2.218 28.226h-1.098v-1.114h1.098v1.114zM34.055 27.113h-1.098v-1.113h1.098v1.113zM32.957 27.113h-1.098v-1.113h1.098v1.113zM31.859 27.113h-1.098v-1.113h1.098v1.113zM24.174 27.113h-1.098v-1.113h1.098v1.113zM23.077 27.113h-1.098v-1.113h1.098v1.113zM21.978 27.113h-1.098v-1.113h1.098v1.113zM18.685 27.113h-1.098v-1.113h1.098v1.113zM16.49 27.113h-1.098v-1.113h1.098v1.113zM13.196 27.113h-1.098v-1.113h1.098v1.113zM12.098 27.113h-1.098v-1.113h1.098v1.113zM11 27.113h-1.098v-1.113h1.098v1.113z"></path>
<path fill="#ecd979" style="fill: var(--color1, #ecd979)" d="M3.315 27.113h-1.098v-1.113h1.098v1.113z"></path>
<path fill="#ecd979" style="fill: var(--color1, #ecd979)" d="M2.218 27.113h-1.098v-1.113h1.098v1.113z"></path>
<path fill="#ecd979" style="fill: var(--color1, #ecd979)" d="M1.12 27.113h-1.099v-1.113h1.099v1.113zM34.055 26h-1.098v-1.113h1.098v1.113zM32.957 26h-1.098v-1.113h1.098v1.113zM23.077 26h-1.098v-1.113h1.098v1.113zM21.978 26h-1.098v-1.113h1.098v1.113zM20.88 26h-1.098v-1.113h1.098v1.113zM14.294 26h-1.098v-1.113h1.098v1.113zM13.196 26h-1.098v-1.113h1.098v1.113zM12.098 26h-1.098v-1.113h1.098v1.113zM2.218 26h-1.098v-1.113h1.098v1.113z"></path>
<path fill="#ecd979" style="fill: var(--color1, #ecd979)" d="M1.12 26h-1.099v-1.113h1.099v1.113zM34.055 24.887h-1.098v-1.114h1.098v1.114zM28.566 24.887h-1.098v-1.114h1.098v1.114zM18.685 24.887h-1.098v-1.114h1.098v1.114zM16.49 24.887h-1.098v-1.114h1.098v1.114zM6.609 24.887h-1.098v-1.114h1.097v1.114zM1.12 24.887h-1.099v-1.114h1.099v1.114zM28.566 23.774h-1.098v-1.112h1.098v1.112zM27.468 23.774h-1.098v-1.112h1.098v1.112zM19.783 23.774h-1.098v-1.112h1.098v1.112z"></path>
<path fill="#ecd979" style="fill: var(--color1, #ecd979)" d="M18.685 23.774h-1.098v-1.112h1.098v1.112zM16.49 23.774h-1.098v-1.112h1.098v1.112zM15.392 23.774h-1.098v-1.112h1.098v1.112zM7.706 23.774h-1.098v-1.112h1.098v1.112zM6.609 23.774h-1.098v-1.112h1.097v1.112zM28.566 22.661h-1.098v-1.113h1.098v1.113zM27.468 22.661h-1.098v-1.113h1.098v1.113zM26.37 22.661h-1.098v-1.113h1.098v1.113zM20.88 22.661h-1.098v-1.113h1.098v1.113z"></path>
<path fill="#ecd979" style="fill: var(--color1, #ecd979)" d="M19.783 22.661h-1.098v-1.113h1.098v1.113zM15.392 22.661h-1.098v-1.113h1.098v1.113z"></path>
<path fill="#ecd979" style="fill: var(--color1, #ecd979)" d="M14.294 22.661h-1.098v-1.113h1.098v1.113zM8.805 22.661h-1.098v-1.113h1.098v1.113zM7.706 22.661h-1.098v-1.113h1.098v1.113zM6.609 22.661h-1.098v-1.113h1.097v1.113zM27.468 21.548h-1.098v-1.113h1.098v1.112zM26.37 21.548h-1.098v-1.113h1.098v1.112zM21.978 21.548h-1.098v-1.113h1.098v1.112zM20.88 21.548h-1.098v-1.113h1.098v1.112zM14.294 21.548h-1.098v-1.113h1.098v1.112zM13.196 21.548h-1.098v-1.113h1.098v1.112zM8.805 21.548h-1.098v-1.113h1.098v1.112zM7.706 21.548h-1.098v-1.113h1.098v1.112zM31.859 20.435h-1.098v-1.114h1.098v1.114zM30.762 20.435h-1.098v-1.114h1.098v1.114z"></path>
<path fill="#ecd979" style="fill: var(--color1, #ecd979)" d="M29.664 20.435h-1.098v-1.114h1.098v1.114zM26.37 20.435h-1.098v-1.114h1.098v1.114zM23.077 20.435h-1.098v-1.114h1.098v1.114zM21.978 20.435h-1.098v-1.114h1.098v1.114zM13.196 20.435h-1.098v-1.114h1.098v1.114zM12.098 20.435h-1.098v-1.114h1.098v1.114zM8.805 20.435h-1.098v-1.114h1.098v1.114zM5.511 20.435h-1.098v-1.114h1.099v1.114zM4.413 20.435h-1.098v-1.114h1.098v1.114zM3.315 20.435h-1.098v-1.114h1.098v1.114zM35.152 19.322h-1.096v-1.113h1.098v1.113zM30.762 19.322h-1.098v-1.113h1.098v1.113z"></path>
<path fill="#ecd979" style="fill: var(--color1, #ecd979)" d="M29.664 19.322h-1.098v-1.113h1.098v1.113zM28.566 19.322h-1.098v-1.113h1.098v1.113zM24.174 19.322h-1.098v-1.113h1.098v1.113zM23.077 19.322h-1.098v-1.113h1.098v1.113zM12.098 19.322h-1.098v-1.113h1.098v1.113zM11 19.322h-1.098v-1.113h1.098v1.113zM6.609 19.322h-1.098v-1.113h1.097v1.113z"></path>
<path fill="#ecd979" style="fill: var(--color1, #ecd979)" d="M5.511 19.322h-1.098v-1.113h1.099v1.113zM4.413 19.322h-1.098v-1.113h1.098v1.113zM35.152 18.208h-1.096v-1.112h1.098v1.112zM34.055 18.208h-1.098v-1.112h1.098v1.112zM29.664 18.208h-1.098v-1.112h1.098v1.112zM28.566 18.208h-1.098v-1.112h1.098v1.112zM27.468 18.208h-1.098v-1.112h1.098v1.112zM25.272 18.208h-1.098v-1.112h1.098v1.112zM24.174 18.208h-1.098v-1.112h1.098v1.112zM17.587 18.208h-1.098v-1.112h1.098v1.112zM11 18.208h-1.098v-1.112h1.098v1.112zM9.902 18.208h-1.098v-1.112h1.098v1.112zM7.706 18.208h-1.098v-1.112h1.098v1.112zM6.609 18.208h-1.098v-1.112h1.097v1.112z"></path>
<path fill="#ecd979" style="fill: var(--color1, #ecd979)" d="M5.511 18.208h-1.098v-1.112h1.099v1.112zM1.098 17.096h-1.098v-1.114h1.098v1.114zM2.218 17.096h-1.098v-1.114h1.098v1.114zM1.098 18.208h-1.098v-1.112h1.098v1.112zM1.098 15.982h-1.098v-1.113h1.098v1.113zM35.152 17.096h-1.096v-1.114h1.098v1.114zM34.055 17.096h-1.098v-1.114h1.098v1.114zM32.957 17.096h-1.098v-1.114h1.098v1.114zM18.685 17.096h-1.098v-1.114h1.098v1.114zM17.587 17.096h-1.098v-1.114h1.098v1.114zM16.49 17.096h-1.098v-1.114h1.098v1.114zM35.152 15.982h-1.096v-1.113h1.098v1.113zM34.055 15.982h-1.098v-1.113h1.098v1.113zM29.664 15.982h-1.098v-1.113h1.098v1.113zM28.566 15.982h-1.098v-1.113h1.098v1.113zM27.468 15.982h-1.098v-1.113h1.098v1.113zM25.272 15.982h-1.098v-1.113h1.098v1.113zM24.174 15.982h-1.098v-1.113h1.098v1.113zM17.587 15.982h-1.098v-1.113h1.098v1.113zM11 15.982h-1.098v-1.113h1.098v1.113zM9.902 15.982h-1.098v-1.113h1.098v1.113zM7.706 15.982h-1.098v-1.113h1.098v1.113zM6.609 15.982h-1.098v-1.113h1.097v1.113z"></path>
<path fill="#ecd979" style="fill: var(--color1, #ecd979)" d="M5.511 15.982h-1.098v-1.113h1.099v1.113zM35.152 14.87h-1.096v-1.113h1.098v1.112zM30.762 14.87h-1.098v-1.113h1.098v1.112z"></path>
<path fill="#ecd979" style="fill: var(--color1, #ecd979)" d="M29.664 14.87h-1.098v-1.113h1.098v1.112zM28.566 14.87h-1.098v-1.113h1.098v1.112zM24.174 14.87h-1.098v-1.113h1.098v1.112zM23.077 14.87h-1.098v-1.113h1.098v1.112zM12.098 14.87h-1.098v-1.113h1.098v1.112zM11 14.87h-1.098v-1.113h1.098v1.112zM6.609 14.87h-1.098v-1.113h1.097v1.112z"></path>
<path fill="#ecd979" style="fill: var(--color1, #ecd979)" d="M5.511 14.87h-1.098v-1.113h1.099v1.112zM4.413 14.87h-1.098v-1.113h1.098v1.112zM31.859 13.757h-1.098v-1.114h1.098v1.114zM30.762 13.757h-1.098v-1.114h1.098v1.114z"></path>
<path fill="#ecd979" style="fill: var(--color1, #ecd979)" d="M29.664 13.757h-1.098v-1.114h1.098v1.114zM26.37 13.757h-1.098v-1.114h1.098v1.114zM23.077 13.757h-1.098v-1.114h1.098v1.114zM21.978 13.757h-1.098v-1.114h1.098v1.114zM13.196 13.757h-1.098v-1.114h1.098v1.114zM12.098 13.757h-1.098v-1.114h1.098v1.114zM8.805 13.757h-1.098v-1.114h1.098v1.114zM5.511 13.757h-1.098v-1.114h1.099v1.114zM4.413 13.757h-1.098v-1.114h1.098v1.114zM3.315 13.757h-1.098v-1.114h1.098v1.114zM27.468 12.643h-1.098v-1.113h1.098v1.113zM26.37 12.643h-1.098v-1.113h1.098v1.113zM21.978 12.643h-1.098v-1.113h1.098v1.113z"></path>
<path fill="#ecd979" style="fill: var(--color1, #ecd979)" d="M20.88 12.643h-1.098v-1.113h1.098v1.113zM14.294 12.643h-1.098v-1.113h1.098v1.113zM13.196 12.643h-1.098v-1.113h1.098v1.113zM8.805 12.643h-1.098v-1.113h1.098v1.113zM7.706 12.643h-1.098v-1.113h1.098v1.113zM28.566 11.53h-1.098v-1.113h1.098v1.113zM27.468 11.53h-1.098v-1.113h1.098v1.113zM26.37 11.53h-1.098v-1.113h1.098v1.113zM20.88 11.53h-1.098v-1.113h1.098v1.113z"></path>
<path fill="#ecd979" style="fill: var(--color1, #ecd979)" d="M19.783 11.53h-1.098v-1.113h1.098v1.113zM15.392 11.53h-1.098v-1.113h1.098v1.113z"></path>
<path fill="#ecd979" style="fill: var(--color1, #ecd979)" d="M14.294 11.53h-1.098v-1.113h1.098v1.113zM8.805 11.53h-1.098v-1.113h1.098v1.113zM7.706 11.53h-1.098v-1.113h1.098v1.113zM6.609 11.53h-1.098v-1.113h1.097v1.113zM28.566 10.418h-1.098v-1.114h1.098v1.114zM27.468 10.418h-1.098v-1.114h1.098v1.114zM19.783 10.418h-1.098v-1.114h1.098v1.114z"></path>
<path fill="#ecd979" style="fill: var(--color1, #ecd979)" d="M18.685 10.418h-1.098v-1.114h1.098v1.114zM16.49 10.418h-1.098v-1.114h1.098v1.114zM15.392 10.418h-1.098v-1.114h1.098v1.114zM7.706 10.418h-1.098v-1.114h1.098v1.114zM6.609 10.418h-1.098v-1.114h1.097v1.114zM28.566 9.304h-1.098v-1.112h1.098v1.112zM18.685 9.304h-1.098v-1.112h1.098v1.112zM16.49 9.304h-1.098v-1.112h1.098v1.112zM6.609 9.304h-1.098v-1.112h1.097v1.112zM34.055 8.192h-1.098v-1.114h1.098v1.113zM1.12 8.192h-1.099v-1.114h1.099v1.113z"></path>
<path fill="#ecd979" style="fill: var(--color1, #ecd979)" d="M34.055 7.078h-1.098v-1.114h1.098v1.114zM32.957 7.078h-1.098v-1.114h1.098v1.114zM23.077 7.078h-1.098v-1.114h1.098v1.114zM21.978 7.078h-1.098v-1.114h1.098v1.114zM20.88 7.078h-1.098v-1.114h1.098v1.114zM14.294 7.078h-1.098v-1.114h1.098v1.114zM13.196 7.078h-1.098v-1.114h1.098v1.114zM12.098 7.078h-1.098v-1.114h1.098v1.114zM2.218 7.078h-1.098v-1.114h1.098v1.114z"></path>
<path fill="#ecd979" style="fill: var(--color1, #ecd979)" d="M1.12 7.078h-1.099v-1.114h1.099v1.114zM34.055 5.966h-1.098v-1.114h1.098v1.114zM32.957 5.966h-1.098v-1.114h1.098v1.114zM31.859 5.966h-1.098v-1.114h1.098v1.114zM24.174 5.966h-1.098v-1.114h1.098v1.114zM23.077 5.966h-1.098v-1.114h1.098v1.114zM21.978 5.966h-1.098v-1.114h1.098v1.114zM18.685 5.966h-1.098v-1.114h1.098v1.114zM16.49 5.966h-1.098v-1.114h1.098v1.114zM13.196 5.966h-1.098v-1.114h1.098v1.114zM12.098 5.966h-1.098v-1.114h1.098v1.114zM11 5.966h-1.098v-1.114h1.098v1.114zM3.315 5.966h-1.098v-1.114h1.098v1.114z"></path>
<path fill="#ecd979" style="fill: var(--color1, #ecd979)" d="M2.218 5.966h-1.098v-1.114h1.098v1.114z"></path>
<path fill="#ecd979" style="fill: var(--color1, #ecd979)" d="M1.12 5.966h-1.099v-1.114h1.099v1.114zM32.957 4.852h-1.098v-1.113h1.098v1.113zM31.859 4.852h-1.098v-1.113h1.098v1.113zM30.762 4.852h-1.098v-1.113h1.098v1.113zM25.272 4.852h-1.098v-1.113h1.098v1.113zM24.174 4.852h-1.098v-1.113h1.098v1.113zM23.077 4.852h-1.098v-1.113h1.098v1.113zM19.783 4.852h-1.098v-1.113h1.098v1.113z"></path>
<path fill="#ecd979" style="fill: var(--color1, #ecd979)" d="M18.685 4.852h-1.098v-1.113h1.098v1.113zM16.49 4.852h-1.098v-1.113h1.098v1.113zM15.392 4.852h-1.098v-1.113h1.098v1.113zM12.098 4.852h-1.098v-1.113h1.098v1.113zM11 4.852h-1.098v-1.113h1.098v1.113zM9.902 4.852h-1.098v-1.113h1.098v1.113zM4.413 4.852h-1.098v-1.113h1.098v1.113zM3.315 4.852h-1.098v-1.113h1.098v1.113z"></path>
<path fill="#ecd979" style="fill: var(--color1, #ecd979)" d="M2.218 4.852h-1.098v-1.113h1.098v1.113zM31.859 3.739h-1.098v-1.113h1.098v1.112zM30.762 3.739h-1.098v-1.113h1.098v1.112z"></path>
<path fill="#ecd979" style="fill: var(--color1, #ecd979)" d="M29.664 3.739h-1.098v-1.113h1.098v1.112zM20.88 3.739h-1.098v-1.113h1.098v1.112z"></path>
<path fill="#ecd979" style="fill: var(--color1, #ecd979)" d="M19.783 3.739h-1.098v-1.113h1.098v1.112z"></path>
<path fill="#ecd979" style="fill: var(--color1, #ecd979)" d="M18.685 3.739h-1.098v-1.113h1.098v1.112zM16.49 3.739h-1.098v-1.113h1.098v1.112zM15.392 3.739h-1.098v-1.113h1.098v1.112zM14.294 3.739h-1.098v-1.113h1.098v1.112zM5.511 3.739h-1.098v-1.113h1.099v1.112zM4.413 3.739h-1.098v-1.113h1.098v1.112zM3.315 3.739h-1.098v-1.113h1.098v1.112zM35.152 2.626h-1.096v-1.114h1.098v1.114zM30.762 2.626h-1.098v-1.114h1.098v1.114z"></path>
<path fill="#ecd979" style="fill: var(--color1, #ecd979)" d="M29.664 2.626h-1.098v-1.114h1.098v1.114zM28.566 2.626h-1.098v-1.114h1.098v1.114zM20.88 2.626h-1.098v-1.114h1.098v1.114z"></path>
<path fill="#ecd979" style="fill: var(--color1, #ecd979)" d="M19.783 2.626h-1.098v-1.114h1.098v1.114zM15.392 2.626h-1.098v-1.114h1.098v1.114z"></path>
<path fill="#ecd979" style="fill: var(--color1, #ecd979)" d="M14.294 2.626h-1.098v-1.114h1.098v1.114zM6.609 2.626h-1.098v-1.114h1.097v1.114z"></path>
<path fill="#ecd979" style="fill: var(--color1, #ecd979)" d="M5.511 2.626h-1.098v-1.114h1.099v1.114zM4.413 2.626h-1.098v-1.114h1.098v1.114zM35.152 1.513h-1.096v-1.113h1.098v1.113zM34.055 1.513h-1.098v-1.113h1.098v1.113zM29.664 1.513h-1.098v-1.113h1.098v1.113zM28.566 1.513h-1.098v-1.113h1.098v1.113zM27.468 1.513h-1.098v-1.113h1.098v1.113zM20.88 1.513h-1.098v-1.113h1.098v1.113zM14.294 1.513h-1.098v-1.113h1.098v1.113zM7.706 1.513h-1.098v-1.113h1.098v1.113z"></path>
<path fill="#ecd979" style="fill: var(--color1, #ecd979)" d="M6.609 1.513h-1.098v-1.113h1.097v1.113z"></path>
<path fill="#ecd979" style="fill: var(--color1, #ecd979)" d="M5.511 1.513h-1.098v-1.113h1.099v1.113zM1.12 1.513h-1.099v-1.113h1.099v1.113z"></path>
</symbol>
  </defs>
</svg>


