<svg aria-hidden="true" style="position: absolute; width: 0; height: 0; overflow: hidden;" version="1.1" xmlns="http://www.w3.org/2000/svg" xmlns:xlink="http://www.w3.org/1999/xlink">
<defs>
<symbol id="icon--1" viewBox="0 0 45 32">
<path fill="#ecd979" style="fill: var(--color1, #ecd979)" d="M39.198 18.761c-0.245-1.839-0.403-3.482-0.476-4.926-0.008-0.233-0.012-0.508-0.012-0.783 0-1.067 0.066-2.119 0.194-3.152l-0.013 0.123-35.71 20.616-1.69-2.925 35.71-20.617c-1.356-0.623-2.48-1.234-3.56-1.907l0.134 0.078c-1.59-1.038-2.89-1.961-4.155-2.927l0.166 0.122 2.146-1.239c4.529 1.905 8.672 2.857 12.427 2.856l0.725 1.254c-1.907 3.206-3.153 7.27-3.742 12.192l-2.144 1.237z"></path>
</symbol>
<symbol id="icon-facebook" viewBox="0 0 32 32">
<path fill="#fcf9f9" style="fill: var(--color2, #fcf9f9)" opacity="0.8" d="M19.52 4.64h0.96v3.6h-1.2c-0.48 0-0.96 0-1.2 0.24s-0.24 0.48-0.24 1.040v1.28h2.64v3.040h-2.64v13.2h-4.080v-13.28h-2.16v-3.040h2.16v-1.040c0-1.76 0.24-3.040 0.72-3.6 0.72-1.040 2.16-1.52 4.32-1.52 0.24 0.080 0.48 0.080 0.72 0.080z"></path>
</symbol>
<symbol id="icon-instagram" viewBox="0 0 32 32">
<path fill="#fcf9f9" style="fill: var(--color2, #fcf9f9)" opacity="0.8" d="M28.718 10.755c-0.016-1.134-0.233-2.212-0.617-3.207l0.021 0.063c-0.682-1.722-2.021-3.059-3.7-3.722l-0.044-0.015c-0.921-0.356-1.985-0.573-3.097-0.596l-0.010-0c-1.367-0.061-1.801-0.078-5.271-0.078-3.472 0-3.917 0-5.274 0.078-1.063 0.023-2.113 0.223-3.106 0.597-1.724 0.678-3.064 2.015-3.73 3.693l-0.015 0.044c-0.357 0.918-0.574 1.981-0.596 3.091l-0 0.009c-0.061 1.367-0.080 1.8-0.080 5.265 0 3.466 0 3.909 0.080 5.265 0.023 1.121 0.24 2.184 0.618 3.168l-0.022-0.064c0.682 1.721 2.021 3.058 3.7 3.721l0.044 0.015c0.917 0.369 1.98 0.6 3.091 0.637l0.015 0c1.369 0.062 1.802 0.080 5.274 0.080 3.471 0 3.917 0 5.274-0.080 1.122-0.023 2.187-0.239 3.172-0.616l-0.064 0.022c1.722-0.68 3.061-2.016 3.727-3.693l0.016-0.044c0.356-0.919 0.573-1.982 0.595-3.093l0-0.010c0.062-1.366 0.080-1.799 0.080-5.266-0.003-3.465-0.003-3.905-0.082-5.264zM15.989 22.531c-0.002 0-0.004 0-0.006 0-3.625 0-6.563-2.937-6.566-6.561v-0c0.002-3.624 2.94-6.561 6.565-6.561 0.002 0 0.005 0 0.007 0h-0c3.629 0 6.571 2.937 6.571 6.56-0.003 3.625-2.942 6.562-6.567 6.562-0.002 0-0.003 0-0.005 0h0zM22.823 10.696c-0.845 0-1.53-0.685-1.53-1.53s0.685-1.53 1.53-1.53v0c0.012-0 0.027-0.001 0.042-0.001 0.845 0 1.53 0.685 1.53 1.53s-0.685 1.53-1.53 1.53c-0.015 0-0.029-0-0.044-0.001l0.002 0z"></path>
<path fill="#fcf9f9" style="fill: var(--color2, #fcf9f9)" opacity="0.8" d="M15.992 19.976c2.211 0 4.004-1.793 4.004-4.004s-1.793-4.004-4.004-4.004v0c-2.211 0-4.004 1.793-4.004 4.004s1.793 4.004 4.004 4.004v0z"></path>
</symbol>
<symbol id="icon-Nav-1" viewBox="0 0 47 32">
<path fill="none" stroke="#ecd979" style="stroke: var(--color1, #ecd979)" stroke-linejoin="miter" stroke-linecap="round" stroke-miterlimit="4" stroke-width="3.2" d="M8.742 5.188h36.591M8.742 24.581h36.591M19.965 14.885h25.369"></path>
</symbol>
<symbol id="icon-Star-10" viewBox="0 0 32 32">
<path fill="#ecd979" style="fill: var(--color1, #ecd979)" d="M15.434 0.333c0.115-0.197 0.325-0.328 0.566-0.328s0.451 0.13 0.565 0.325l0.002 0.003 1.84 3.203c0.115 0.197 0.325 0.327 0.566 0.327 0.138 0 0.265-0.043 0.371-0.115l-0.002 0.001 3.081-2.107c0.103-0.071 0.231-0.114 0.368-0.114 0.346 0 0.628 0.268 0.652 0.608l0 0.002 0.239 3.643c0.023 0.342 0.306 0.61 0.652 0.61 0.036 0 0.071-0.003 0.106-0.009l-0.004 0 3.69-0.585c0.031-0.005 0.067-0.008 0.103-0.008 0.361 0 0.653 0.292 0.653 0.653 0 0.090-0.018 0.175-0.051 0.253l0.002-0.004-1.386 3.359c-0.031 0.074-0.049 0.159-0.049 0.249 0 0.296 0.197 0.545 0.466 0.626l0.005 0.001 3.555 1.036c0.274 0.082 0.47 0.331 0.47 0.627 0 0.193-0.084 0.367-0.218 0.487l-0.001 0.001-2.731 2.433c-0.135 0.12-0.219 0.294-0.219 0.488s0.084 0.368 0.218 0.487l0.001 0.001 2.731 2.433c0.134 0.12 0.218 0.294 0.218 0.487 0 0.296-0.196 0.545-0.466 0.626l-0.005 0.001-3.555 1.036c-0.274 0.082-0.471 0.331-0.471 0.627 0 0.090 0.018 0.176 0.051 0.254l-0.002-0.004 1.386 3.359c0.031 0.074 0.050 0.16 0.050 0.25 0 0.361-0.292 0.653-0.653 0.653-0.036 0-0.072-0.003-0.106-0.009l0.004 0-3.69-0.585c-0.031-0.005-0.066-0.008-0.103-0.008-0.346 0-0.628 0.268-0.652 0.608l-0 0.002-0.239 3.643c-0.023 0.342-0.306 0.611-0.652 0.611-0.138 0-0.266-0.043-0.371-0.116l0.002 0.001-3.081-2.107c-0.103-0.071-0.231-0.114-0.368-0.114-0.241 0-0.451 0.13-0.564 0.324l-0.002 0.003-1.84 3.203c-0.115 0.197-0.325 0.328-0.566 0.328s-0.451-0.13-0.565-0.325l-0.002-0.003-1.84-3.203c-0.115-0.197-0.325-0.327-0.566-0.327-0.138 0-0.265 0.043-0.371 0.115l0.002-0.001-3.081 2.107c-0.103 0.071-0.231 0.114-0.368 0.114-0.346 0-0.628-0.268-0.652-0.608l-0-0.002-0.239-3.643c-0.023-0.342-0.306-0.61-0.652-0.61-0.036 0-0.071 0.003-0.106 0.009l0.004-0-3.69 0.584c-0.031 0.005-0.067 0.008-0.103 0.008-0.361 0-0.653-0.292-0.653-0.653 0-0.090 0.018-0.175 0.051-0.253l-0.002 0.004 1.386-3.359c0.031-0.074 0.049-0.159 0.049-0.249 0-0.296-0.197-0.545-0.466-0.626l-0.005-0.001-3.555-1.035c-0.274-0.082-0.471-0.331-0.471-0.627 0-0.194 0.084-0.368 0.218-0.487l0.001-0.001 2.731-2.433c0.135-0.12 0.219-0.294 0.219-0.488s-0.084-0.368-0.218-0.487l-0.001-0.001-2.731-2.433c-0.134-0.12-0.218-0.294-0.218-0.487 0-0.296 0.196-0.545 0.466-0.626l0.005-0.001 3.555-1.036c0.274-0.082 0.471-0.331 0.471-0.627 0-0.090-0.018-0.176-0.051-0.254l0.002 0.004-1.386-3.359c-0.031-0.074-0.050-0.16-0.050-0.25 0-0.361 0.292-0.653 0.653-0.653 0.036 0 0.072 0.003 0.106 0.009l-0.004-0 3.69 0.585c0.031 0.005 0.066 0.008 0.103 0.008 0.346 0 0.629-0.268 0.652-0.608l0-0.002 0.239-3.643c0.023-0.342 0.306-0.611 0.652-0.611 0.138 0 0.266 0.043 0.371 0.116l-0.002-0.001 3.080 2.107c0.103 0.071 0.231 0.114 0.368 0.114 0.241 0 0.451-0.13 0.564-0.324l0.002-0.003 1.84-3.204z"></path>
</symbol>
<symbol id="icon-x-1" viewBox="0 0 32 32">
<path stroke-linejoin="round" stroke-linecap="round" stroke-miterlimit="4" stroke-width="2.1818" d="M24 8l-16 16M8 8l16 16"></path>
</symbol>
<symbol id="icon-youtube" viewBox="0 0 32 32">
<path fill="#fcf9f9" style="fill: var(--color2, #fcf9f9)" opacity="0.8" d="M24.24 6c-1.36-0.080-4.16-0.16-8.4-0.16h-0.56c-4.080 0-6.8 0.080-8.16 0.24-1.84 0.16-3.12 0.64-3.84 1.28-0.64 0.56-1.12 1.6-1.28 2.96-0.080 0.88-0.16 2.72-0.16 5.52v0.4c0 2.64 0.080 4.48 0.24 5.36 0.24 1.28 0.64 2.24 1.44 2.8 0.8 0.64 2.16 1.040 4.080 1.2 1.36 0.080 4.16 0.16 8.4 0.16h0.56c4.080 0 6.8-0.080 8.16-0.24 1.84-0.16 3.12-0.64 3.84-1.28 0.64-0.56 1.12-1.6 1.28-2.96 0.080-0.88 0.16-2.72 0.16-5.52v-0.4c0-2.64-0.080-4.48-0.24-5.36-0.24-1.28-0.64-2.24-1.44-2.8-0.8-0.64-2.16-1.040-4.080-1.2zM21.12 15.84l-8.8 5.28v-10.56l8.8 5.28z"></path>
</symbol>
<symbol id="icon-send-order" viewBox="0 0 48 32">
<path fill="#ecd979" style="fill: var(--color1, #ecd979)" d="M41.648 18.934c-0.26-1.954-0.43-3.7-0.506-5.234-0.034-1.56 0.026-2.91 0.178-4.050l-37.94 21.904-1.796-3.108 37.94-21.906c-1.441-0.663-2.634-1.312-3.782-2.028l0.142 0.082c-1.689-1.102-3.069-2.083-4.413-3.11l0.177 0.129 2.278-1.314c4.812 2.024 9.214 3.036 13.206 3.034l0.768 1.332c-2.024 3.406-3.35 7.724-3.974 12.954l-2.28 1.314z"></path>
</symbol>
<symbol id="icon-x-tab" viewBox="0 0 32 32">
<path stroke-linejoin="round" stroke-linecap="round" stroke-miterlimit="4" stroke-width="2.1818" d="M24 8l-16 16M8 8l16 16"></path>
</symbol>
<symbol id="icon-x-mob" viewBox="0 0 32 32">
<path stroke-linejoin="round" stroke-linecap="round" stroke-miterlimit="4" stroke-width="1.7778" d="M24 8l-16 16M8 8l16 16"></path>
</symbol>
<symbol id="icon-send-order" viewBox="0 0 48 32">
<path fill="#ecd979" style="fill: var(--color1, #ecd979)" d="M41.648 18.934c-0.26-1.954-0.43-3.7-0.506-5.234-0.034-1.56 0.026-2.91 0.178-4.050l-37.94 21.904-1.796-3.108 37.94-21.906c-1.441-0.663-2.634-1.312-3.782-2.028l0.142 0.082c-1.689-1.102-3.069-2.083-4.413-3.11l0.177 0.129 2.278-1.314c4.812 2.024 9.214 3.036 13.206 3.034l0.768 1.332c-2.024 3.406-3.35 7.724-3.974 12.954l-2.28 1.314z"></path>
</symbol>
</defs>
</svg>
