<!-- Generated by IcoMoon.io -->
<svg version="1.1" xmlns="http://www.w3.org/2000/svg" width="1155" height="1024" viewBox="0 0 1155 1024">
<title>heroicons-solid_menu-2</title>
<g id="icomoon-ignore">
</g>
<path d="M1153.707 1022.845h-35.971v-36.496h36.024v36.496zM1117.709 1022.845h-36.050v-36.496h36.050v36.496zM973.588 1022.845h-36.050v-36.496h36.024v36.496zM937.538 1022.845h-36.024v-36.496h36.024v36.496zM901.514 1022.845h-36.050v-36.496h36.050v36.496zM685.292 1022.845h-36.024v-36.496h36.050v36.496zM469.123 1022.845h-36.024v-36.496h36.024v36.496zM252.928 1022.845h-36.024v-36.496h36.024v36.496zM216.904 1022.845h-36.024v-36.496h35.998v36.496z"></path>
<path d="M180.88 1022.845h-36.050v-36.496h36.076v36.496zM36.759 1022.845h-36.076v-36.496h36.076v36.496zM1153.707 986.322h-35.971v-36.523h36.024v36.523zM1009.611 986.322h-36.050v-36.523h36.050v36.523z"></path>
<path d="M973.588 986.322h-36.050v-36.523h36.024v36.523zM937.538 986.322h-36.024v-36.523h36.024v36.523zM685.292 986.322h-36.024v-36.523h36.050v36.523z"></path>
<path d="M649.295 986.322h-36.050v-36.523h36.024v36.523zM505.173 986.322h-36.050v-36.523h36.024v36.523z"></path>
<path d="M469.123 986.322h-36.024v-36.523h36.024v36.523zM216.904 986.322h-36.024v-36.523h35.998v36.523z"></path>
<path d="M180.88 986.322h-36.050v-36.523h36.076v36.523zM144.83 986.322h-36.024v-36.523h36.024v36.523zM1045.635 949.799h-36.024v-36.523h36.024v36.496zM1009.611 949.799h-36.050v-36.523h36.050v36.496z"></path>
<path d="M973.588 949.799h-36.050v-36.523h36.024v36.496zM685.292 949.799h-36.024v-36.523h36.050v36.496z"></path>
<path d="M649.295 949.799h-36.050v-36.523h36.024v36.496z"></path>
<path d="M613.245 949.799h-36.024v-36.523h36.024v36.496zM541.197 949.799h-36.024v-36.523h36.024v36.496zM505.173 949.799h-36.050v-36.523h36.024v36.496zM469.123 949.799h-36.024v-36.523h36.024v36.496zM180.88 949.799h-36.050v-36.523h36.076v36.496zM144.83 949.799h-36.024v-36.523h36.024v36.496zM108.807 949.799h-36.024v-36.523h36.024v36.496zM1081.659 913.277h-36.024v-36.575h36.024v36.549zM1045.635 913.277h-36.024v-36.575h36.024v36.549zM1009.611 913.277h-36.050v-36.575h36.050v36.549zM829.44 913.277h-36.024v-36.575h36.024v36.549zM793.416 913.277h-36.024v-36.575h36.024v36.549zM757.392 913.277h-36.050v-36.575h36.050v36.549zM649.295 913.277h-36.050v-36.575h36.024v36.549z"></path>
<path d="M613.245 913.277h-36.024v-36.575h36.024v36.549zM541.197 913.277h-36.024v-36.575h36.024v36.549zM505.173 913.277h-36.050v-36.575h36.024v36.549zM397.076 913.277h-36.050v-36.575h36.050v36.549zM361.026 913.277h-36.024v-36.575h36.024v36.549zM325.002 913.277h-36.024v-36.575h36.024v36.549zM144.83 913.277h-36.024v-36.575h36.024v36.549zM108.807 913.277h-36.024v-36.575h36.024v36.549z"></path>
<path d="M72.783 913.277h-36.050v-36.575h36.050v36.549zM1117.709 876.728h-36.050v-36.523h36.050v36.523zM1081.659 876.728h-36.024v-36.523h36.024v36.523zM1045.635 876.728h-36.024v-36.523h36.024v36.523zM793.416 876.728h-36.024v-36.523h36.024v36.523zM757.392 876.728h-36.050v-36.523h36.050v36.523zM721.342 876.728h-36.024v-36.523h36.024v36.523zM613.245 876.728h-36.024v-36.523h36.024v36.523zM541.197 876.728h-36.024v-36.523h36.024v36.523zM433.099 876.728h-36.024v-36.523h36.024v36.523zM397.076 876.728h-36.050v-36.523h36.050v36.523zM361.026 876.728h-36.024v-36.523h36.024v36.523z"></path>
<path d="M108.807 876.728h-36.024v-36.523h36.024v36.523z"></path>
<path d="M72.783 876.728h-36.050v-36.523h36.050v36.523z"></path>
<path d="M36.759 876.728h-36.076v-36.523h36.076v36.523zM1117.709 840.205h-36.050v-36.523h36.050v36.523zM1081.659 840.205h-36.024v-36.523h36.024v36.523zM757.392 840.205h-36.050v-36.523h36.050v36.523zM721.342 840.205h-36.024v-36.523h36.024v36.523zM685.292 840.205h-36.024v-36.523h36.050v36.523zM469.123 840.205h-36.024v-36.523h36.024v36.523zM433.099 840.205h-36.024v-36.523h36.024v36.523zM397.076 840.205h-36.050v-36.523h36.050v36.523zM72.783 840.205h-36.050v-36.523h36.050v36.523z"></path>
<path d="M36.759 840.205h-36.076v-36.523h36.076v36.523zM1117.709 803.682h-36.050v-36.549h36.050v36.549zM937.538 803.682h-36.024v-36.549h36.024v36.549zM613.245 803.682h-36.024v-36.549h36.024v36.549zM541.197 803.682h-36.024v-36.549h36.024v36.549zM216.904 803.682h-36.024v-36.549h35.998v36.549zM36.759 803.682h-36.076v-36.549h36.076v36.549zM937.538 767.134h-36.024v-36.496h36.024v36.496zM901.514 767.134h-36.050v-36.496h36.050v36.496zM649.295 767.134h-36.050v-36.496h36.024v36.496z"></path>
<path d="M613.245 767.134h-36.024v-36.496h36.024v36.496zM541.197 767.134h-36.024v-36.496h36.024v36.496zM505.173 767.134h-36.050v-36.496h36.024v36.496zM252.928 767.134h-36.024v-36.496h36.024v36.496zM216.904 767.134h-36.024v-36.496h35.998v36.496zM937.538 730.611h-36.024v-36.523h36.024v36.523zM901.514 730.611h-36.050v-36.523h36.050v36.523zM865.464 730.611h-36.024v-36.523h36.024v36.523zM685.292 730.611h-36.024v-36.523h36.050v36.523z"></path>
<path d="M649.295 730.611h-36.050v-36.523h36.024v36.523zM505.173 730.611h-36.050v-36.523h36.024v36.523z"></path>
<path d="M469.123 730.611h-36.024v-36.523h36.024v36.523zM288.978 730.611h-36.050v-36.523h36.050v36.523zM252.928 730.611h-36.024v-36.523h36.024v36.523zM216.904 730.611h-36.024v-36.523h35.998v36.523zM901.514 694.088h-36.050v-36.523h36.050v36.496zM865.464 694.088h-36.024v-36.523h36.024v36.496zM721.342 694.088h-36.024v-36.523h36.024v36.496zM685.292 694.088h-36.024v-36.523h36.050v36.496zM469.123 694.088h-36.024v-36.523h36.024v36.496zM433.099 694.088h-36.024v-36.523h36.024v36.496zM288.978 694.088h-36.050v-36.523h36.050v36.496zM252.928 694.088h-36.024v-36.523h36.024v36.496zM1045.635 657.566h-36.024v-36.549h36.024v36.549zM1009.611 657.566h-36.050v-36.549h36.050v36.549z"></path>
<path d="M973.588 657.566h-36.050v-36.549h36.024v36.549zM865.464 657.566h-36.024v-36.549h36.024v36.549zM757.392 657.566h-36.050v-36.549h36.050v36.549zM721.342 657.566h-36.024v-36.549h36.024v36.549zM433.099 657.566h-36.024v-36.549h36.024v36.549zM397.076 657.566h-36.050v-36.549h36.050v36.549zM288.978 657.566h-36.050v-36.549h36.050v36.549zM180.88 657.566h-36.050v-36.549h36.076v36.549zM144.83 657.566h-36.024v-36.549h36.024v36.549zM108.807 657.566h-36.024v-36.549h36.024v36.549zM1153.707 621.017h-35.971v-36.523h36.024v36.523zM1009.611 621.017h-36.050v-36.523h36.050v36.523z"></path>
<path d="M973.588 621.017h-36.050v-36.523h36.024v36.523zM937.538 621.017h-36.024v-36.523h36.024v36.523zM793.416 621.017h-36.024v-36.523h36.024v36.523zM757.392 621.017h-36.050v-36.523h36.050v36.523zM397.076 621.017h-36.050v-36.523h36.050v36.523zM361.026 621.017h-36.024v-36.523h36.024v36.523zM216.904 621.017h-36.024v-36.523h35.998v36.523z"></path>
<path d="M180.88 621.017h-36.050v-36.523h36.076v36.523zM144.83 621.017h-36.024v-36.523h36.024v36.523zM1153.707 584.468h-35.971v-36.496h36.024v36.496zM1117.709 584.468h-36.050v-36.496h36.050v36.496zM973.588 584.468h-36.050v-36.496h36.024v36.496zM937.538 584.468h-36.024v-36.496h36.024v36.496zM901.514 584.468h-36.050v-36.496h36.050v36.496zM829.44 584.468h-36.024v-36.496h36.024v36.496zM793.416 584.468h-36.024v-36.496h36.024v36.496zM577.221 584.468h-36.024v-36.496h36.024v36.496zM361.026 584.468h-36.024v-36.496h36.024v36.496zM325.002 584.468h-36.024v-36.496h36.024v36.496zM252.928 584.468h-36.024v-36.496h36.024v36.496zM216.904 584.468h-36.024v-36.496h35.998v36.496z"></path>
<path d="M180.88 584.468h-36.050v-36.496h36.076v36.496zM36.024 547.971h-36.024v-36.549h36.024v36.549zM72.783 547.971h-36.050v-36.549h36.050v36.549zM36.024 584.468h-36.024v-36.496h36.024v36.496zM36.024 511.422h-36.024v-36.523h36.024v36.523zM1153.707 547.971h-35.971v-36.549h36.024v36.549zM1117.709 547.971h-36.050v-36.549h36.050v36.549zM1081.659 547.971h-36.024v-36.549h36.024v36.549zM613.245 547.971h-36.024v-36.549h36.024v36.549zM577.221 547.971h-36.024v-36.549h36.024v36.549zM541.197 547.971h-36.024v-36.549h36.024v36.549zM1153.707 511.422h-35.971v-36.523h36.024v36.523zM1117.709 511.422h-36.050v-36.523h36.050v36.523zM973.588 511.422h-36.050v-36.523h36.024v36.523zM937.538 511.422h-36.024v-36.523h36.024v36.523zM901.514 511.422h-36.050v-36.523h36.050v36.523zM829.44 511.422h-36.024v-36.523h36.024v36.523zM793.416 511.422h-36.024v-36.523h36.024v36.523zM577.221 511.422h-36.024v-36.523h36.024v36.523zM361.026 511.422h-36.024v-36.523h36.024v36.523zM325.002 511.422h-36.024v-36.523h36.024v36.523zM252.928 511.422h-36.024v-36.523h36.024v36.523zM216.904 511.422h-36.024v-36.523h35.998v36.523z"></path>
<path d="M180.88 511.422h-36.050v-36.523h36.076v36.523zM1153.707 474.9h-35.971v-36.523h36.024v36.496zM1009.611 474.9h-36.050v-36.523h36.050v36.496z"></path>
<path d="M973.588 474.9h-36.050v-36.523h36.024v36.496zM937.538 474.9h-36.024v-36.523h36.024v36.496zM793.416 474.9h-36.024v-36.523h36.024v36.496zM757.392 474.9h-36.050v-36.523h36.050v36.496zM397.076 474.9h-36.050v-36.523h36.050v36.496zM361.026 474.9h-36.024v-36.523h36.024v36.496zM216.904 474.9h-36.024v-36.523h35.998v36.496z"></path>
<path d="M180.88 474.9h-36.050v-36.523h36.076v36.496zM144.83 474.9h-36.024v-36.523h36.024v36.496zM1045.635 438.377h-36.024v-36.549h36.024v36.549zM1009.611 438.377h-36.050v-36.549h36.050v36.549z"></path>
<path d="M973.588 438.377h-36.050v-36.549h36.024v36.549zM865.464 438.377h-36.024v-36.549h36.024v36.549zM757.392 438.377h-36.050v-36.549h36.050v36.549zM721.342 438.377h-36.024v-36.549h36.024v36.549zM433.099 438.377h-36.024v-36.549h36.024v36.549zM397.076 438.377h-36.050v-36.549h36.050v36.549zM288.978 438.377h-36.050v-36.549h36.050v36.549zM180.88 438.377h-36.050v-36.549h36.076v36.549zM144.83 438.377h-36.024v-36.549h36.024v36.549zM108.807 438.377h-36.024v-36.549h36.024v36.549zM901.514 401.828h-36.050v-36.523h36.050v36.523zM865.464 401.828h-36.024v-36.523h36.024v36.523zM721.342 401.828h-36.024v-36.523h36.024v36.523z"></path>
<path d="M685.292 401.828h-36.024v-36.523h36.050v36.523zM469.123 401.828h-36.024v-36.523h36.024v36.523zM433.099 401.828h-36.024v-36.523h36.024v36.523zM288.978 401.828h-36.050v-36.523h36.050v36.523zM252.928 401.828h-36.024v-36.523h36.024v36.523zM937.538 365.305h-36.024v-36.523h36.024v36.523zM901.514 365.305h-36.050v-36.523h36.050v36.523zM865.464 365.305h-36.024v-36.523h36.024v36.523zM685.292 365.305h-36.024v-36.523h36.050v36.523z"></path>
<path d="M649.295 365.305h-36.050v-36.523h36.024v36.523zM505.173 365.305h-36.050v-36.523h36.024v36.523z"></path>
<path d="M469.123 365.305h-36.024v-36.523h36.024v36.523zM288.978 365.305h-36.050v-36.523h36.050v36.523zM252.928 365.305h-36.024v-36.523h36.024v36.523zM216.904 365.305h-36.024v-36.523h35.998v36.523zM937.538 328.783h-36.024v-36.549h36.024v36.549zM901.514 328.783h-36.050v-36.549h36.050v36.549zM649.295 328.783h-36.050v-36.549h36.024v36.549z"></path>
<path d="M613.245 328.783h-36.024v-36.549h36.024v36.549zM541.197 328.783h-36.024v-36.549h36.024v36.549zM505.173 328.783h-36.050v-36.549h36.024v36.549zM252.928 328.783h-36.024v-36.549h36.024v36.549zM216.904 328.783h-36.024v-36.549h35.998v36.549zM937.538 292.234h-36.024v-36.496h36.024v36.496zM613.245 292.234h-36.024v-36.496h36.024v36.496zM541.197 292.234h-36.024v-36.496h36.024v36.496zM216.904 292.234h-36.024v-36.496h35.998v36.496zM1117.709 255.737h-36.050v-36.575h36.050v36.523zM36.759 255.737h-36.076v-36.575h36.076v36.523z"></path>
<path d="M1117.709 219.189h-36.050v-36.549h36.050v36.549zM1081.659 219.189h-36.024v-36.549h36.024v36.549zM757.392 219.189h-36.050v-36.549h36.050v36.549zM721.342 219.189h-36.024v-36.549h36.024v36.549zM685.292 219.189h-36.024v-36.549h36.050v36.549zM469.123 219.189h-36.024v-36.549h36.024v36.549zM433.099 219.189h-36.024v-36.549h36.024v36.549zM397.076 219.189h-36.050v-36.549h36.050v36.549zM72.783 219.189h-36.050v-36.549h36.050v36.549z"></path>
<path d="M36.759 219.189h-36.076v-36.549h36.076v36.549zM1117.709 182.666h-36.050v-36.549h36.050v36.549zM1081.659 182.666h-36.024v-36.549h36.024v36.549zM1045.635 182.666h-36.024v-36.549h36.024v36.549zM793.416 182.666h-36.024v-36.549h36.024v36.549zM757.392 182.666h-36.050v-36.549h36.050v36.549zM721.342 182.666h-36.024v-36.549h36.024v36.549zM613.245 182.666h-36.024v-36.549h36.024v36.549zM541.197 182.666h-36.024v-36.549h36.024v36.549zM433.099 182.666h-36.024v-36.549h36.024v36.549zM397.076 182.666h-36.050v-36.549h36.050v36.549zM361.026 182.666h-36.024v-36.549h36.024v36.549zM108.807 182.666h-36.024v-36.549h36.024v36.549z"></path>
<path d="M72.783 182.666h-36.050v-36.549h36.050v36.549z"></path>
<path d="M36.759 182.666h-36.076v-36.549h36.076v36.549zM1081.659 146.117h-36.024v-36.523h36.024v36.523zM1045.635 146.117h-36.024v-36.523h36.024v36.523zM1009.611 146.117h-36.050v-36.523h36.050v36.523zM829.44 146.117h-36.024v-36.523h36.024v36.523zM793.416 146.117h-36.024v-36.523h36.024v36.523zM757.392 146.117h-36.050v-36.523h36.050v36.523zM649.295 146.117h-36.050v-36.523h36.024v36.523z"></path>
<path d="M613.245 146.117h-36.024v-36.523h36.024v36.523zM541.197 146.117h-36.024v-36.523h36.024v36.523zM505.173 146.117h-36.050v-36.523h36.024v36.523zM397.076 146.117h-36.050v-36.523h36.050v36.523zM361.026 146.117h-36.024v-36.523h36.024v36.523zM325.002 146.117h-36.024v-36.523h36.024v36.523zM144.83 146.117h-36.024v-36.523h36.024v36.523zM108.807 146.117h-36.024v-36.523h36.024v36.523z"></path>
<path d="M72.783 146.117h-36.050v-36.523h36.050v36.523zM1045.635 109.594h-36.024v-36.523h36.024v36.496zM1009.611 109.594h-36.050v-36.523h36.050v36.496z"></path>
<path d="M973.588 109.594h-36.050v-36.523h36.024v36.496zM685.292 109.594h-36.024v-36.523h36.050v36.496z"></path>
<path d="M649.295 109.594h-36.050v-36.523h36.024v36.496z"></path>
<path d="M613.245 109.594h-36.024v-36.523h36.024v36.496zM541.197 109.594h-36.024v-36.523h36.024v36.496zM505.173 109.594h-36.050v-36.523h36.024v36.496zM469.123 109.594h-36.024v-36.523h36.024v36.496zM180.88 109.594h-36.050v-36.523h36.076v36.496zM144.83 109.594h-36.024v-36.523h36.024v36.496zM108.807 109.594h-36.024v-36.523h36.024v36.496zM1153.707 73.072h-35.971v-36.575h36.024v36.549zM1009.611 73.072h-36.050v-36.575h36.050v36.549z"></path>
<path d="M973.588 73.072h-36.050v-36.575h36.024v36.549zM937.538 73.072h-36.024v-36.575h36.024v36.549zM685.292 73.072h-36.024v-36.575h36.050v36.549z"></path>
<path d="M649.295 73.072h-36.050v-36.575h36.024v36.549zM505.173 73.072h-36.050v-36.575h36.024v36.549z"></path>
<path d="M469.123 73.072h-36.024v-36.575h36.024v36.549zM216.904 73.072h-36.024v-36.575h35.998v36.549z"></path>
<path d="M180.88 73.072h-36.050v-36.575h36.076v36.549zM144.83 73.072h-36.024v-36.575h36.024v36.549zM1153.707 36.523h-35.971v-36.523h36.024v36.523zM1117.709 36.523h-36.050v-36.523h36.050v36.523zM973.588 36.523h-36.050v-36.523h36.024v36.523zM937.538 36.523h-36.024v-36.523h36.024v36.523zM901.514 36.523h-36.050v-36.523h36.050v36.523zM685.292 36.523h-36.024v-36.523h36.050v36.523zM469.123 36.523h-36.024v-36.523h36.024v36.523zM252.928 36.523h-36.024v-36.523h36.024v36.523z"></path>
<path d="M216.904 36.523h-36.024v-36.523h35.998v36.523z"></path>
<path d="M180.88 36.523h-36.050v-36.523h36.076v36.523zM36.759 36.523h-36.076v-36.523h36.076v36.523z"></path>
</svg>
